<?xml version="1.0" encoding="UTF-8"?>
<svg id="Layer_1" xmlns="http://www.w3.org/2000/svg" version="1.1" viewBox="0 0 750.352 213.335">
  <!-- Generator: Adobe Illustrator 30.0.0, SVG Export Plug-In . SVG Version: 2.1.1 Build 123)  -->
  <path d="M102.616,108.961c1.001,4.009,3.794,5.44,8.379,4.295,2.172-.542,4.679-1.535,7.522-2.982,2.843-1.445,5.912-2.58,9.211-3.404,4.262-1.065,8.095-.512,11.5,1.657,3.404,2.17,5.662,5.479,6.772,9.923,1.602,6.414.191,12.052-4.235,16.912-4.425,4.862-11.384,8.477-20.873,10.848-6.273,1.566-12.196,2.059-17.767,1.476-5.573-.582-10.594-2.133-15.07-4.656-4.475-2.52-8.283-5.964-11.424-10.33-3.141-4.364-5.457-9.534-6.951-15.512-1.493-5.975-1.879-11.628-1.16-16.958.72-5.328,2.461-10.157,5.225-14.488,2.764-4.329,6.465-8.062,11.11-11.196,4.642-3.134,10.101-5.485,16.374-7.052,9.489-2.37,17.331-2.451,23.522-.242,6.192,2.21,10.088,6.521,11.69,12.934,1.111,4.447.669,8.41-1.324,11.888-1.994,3.48-5.122,5.751-9.384,6.816-3.299.824-6.536,1.285-9.716,1.382-3.18.098-5.856.417-8.027.96-4.585,1.145-6.376,3.723-5.375,7.731v-.002Z" fill="#703e97"/>
  <path d="M158.748,55.714c4.275-.543,7.861.214,10.754,2.27,2.894,2.057,5.032,4.927,6.421,8.613.517,1.45,1.014,3.052,1.488,4.809s.919,3.632,1.341,5.623l9.128-1.159c-.092-2.033-.127-3.96-.107-5.78s.139-3.5.362-5.044c.339-3.905,1.654-7.214,3.942-9.929,2.288-2.713,5.569-4.342,9.846-4.885,4.275-.543,7.861.214,10.754,2.27,2.894,2.057,5.032,4.927,6.421,8.613,1.166,3.26,2.223,7.311,3.172,12.149.948,4.841,1.75,9.831,2.402,14.973.653,5.142,1.124,10.176,1.416,15.098.29,4.924.279,9.109-.035,12.556-.423,3.916-1.777,7.231-4.065,9.944-2.288,2.715-5.571,4.342-9.846,4.885-4.277.543-7.861-.213-10.754-2.27-2.893-2.055-4.994-4.932-6.297-8.629-.602-1.437-1.138-3.036-1.611-4.793-.474-1.758-.921-3.632-1.34-5.623l-9.129,1.159c.09,2.033.127,3.96.107,5.779-.02,1.82-.1,3.497-.239,5.029-.423,3.916-1.777,7.231-4.065,9.944-2.288,2.715-5.571,4.342-9.846,4.885-4.277.543-7.861-.213-10.754-2.27-2.893-2.055-4.994-4.932-6.297-8.629-1.166-3.26-2.244-7.306-3.234-12.141-.989-4.834-1.811-9.823-2.464-14.965-.653-5.142-1.104-10.177-1.354-15.106-.249-4.927-.217-9.116.097-12.564.338-3.905,1.654-7.213,3.941-9.928,2.288-2.713,5.569-4.342,9.846-4.885h-.001Z" fill="#703e97"/>
  <path d="M270.659,101.584c1.574.025,2.643-.747,3.208-2.316.563-1.569.867-3.705.91-6.41.018-1.127-.002-2.573-.056-4.34-.055-1.766-.128-3.682-.22-5.751-.092-2.067-.182-4.19-.272-6.372-.09-2.18-.12-4.209-.09-6.087.05-3.155.324-6.098.823-8.834.498-2.734,1.386-5.106,2.662-7.114,1.275-2.008,3.082-3.575,5.422-4.704,2.338-1.127,5.374-1.662,9.104-1.603,2.9.046,5.359.518,7.377,1.413,2.016.896,3.677,2.069,4.981,3.516,1.302,1.449,2.333,3.136,3.091,5.064.757,1.928,1.285,3.909,1.585,5.942.607,3.542,1.005,7.211,1.194,11.007.189,3.798.192,7.517.01,11.157-.182,3.642-.529,7.148-1.037,10.521-.51,3.373-1.202,6.444-2.073,9.209-1.397,4.412-3.361,8.1-5.895,11.064-2.534,2.966-5.475,5.342-8.818,7.13-3.345,1.789-6.931,3.046-10.755,3.775-3.826.728-7.686,1.062-11.581,1-3.897-.062-7.745-.517-11.544-1.366-3.801-.849-7.324-2.218-10.568-4.112-3.246-1.891-6.108-4.36-8.588-7.405-2.482-3.044-4.35-6.792-5.605-11.246-.786-2.791-1.38-5.882-1.781-9.27-.403-3.387-.637-6.902-.704-10.549-.067-3.644.054-7.362.363-11.151.309-3.788.821-7.443,1.541-10.964.446-2.022,1.058-3.984,1.834-5.888s1.838-3.558,3.187-4.965c1.347-1.405,3.044-2.524,5.09-3.357,2.043-.831,4.516-1.225,7.418-1.179,3.73.059,6.745.69,9.049,1.89,2.301,1.202,4.059,2.825,5.27,4.873,1.211,2.047,2.023,4.446,2.436,7.195.411,2.75.594,5.701.544,8.856-.03,1.879-.104,3.906-.221,6.083-.118,2.178-.254,4.298-.411,6.361-.157,2.065-.312,3.978-.464,5.741-.152,1.764-.237,3.208-.255,4.335-.043,2.704.192,4.849.706,6.435.513,1.586,1.558,2.391,3.133,2.416h0Z" fill="#703e97"/>
  <path d="M359.408,56.296c12.785,2.429,21.755,6.408,26.907,11.935,5.152,5.529,6.851,12.906,5.099,22.131-1.781,9.374-5.704,15.702-11.769,18.984-6.067,3.284-14.801,3.842-26.202,1.676-2.119-.403-3.527-.421-4.229-.058-.702.365-1.165,1.137-1.389,2.317-.098.517-.143,1.083-.132,1.695.01.615.006,1.302-.012,2.063-.018.762-.061,1.652-.128,2.671-.067,1.02-.234,2.232-.5,3.633-.463,2.435-1.34,4.391-2.633,5.866s-2.825,2.543-4.595,3.199c-1.771.658-3.713.995-5.825,1.015-2.114.018-4.229-.172-6.346-.575-4.236-.804-7.411-2.63-9.528-5.48-2.117-2.849-3.226-6.233-3.324-10.152-.078-3.15.111-6.918.565-11.306.454-4.387,1.083-8.931,1.893-13.634.808-4.701,1.77-9.317,2.883-13.847,1.113-4.529,2.291-8.511,3.535-11.946,1.049-2.858,2.442-5.194,4.179-7.006,1.736-1.81,4.013-3.138,6.831-3.979s6.256-1.181,10.32-1.022c4.061.16,8.861.765,14.4,1.817v.003ZM349.871,80.522c-.449,2.363-.183,4.401.8,6.116.981,1.717,2.491,2.767,4.527,3.154,2.117.402,3.927-.018,5.429-1.263,1.502-1.244,2.477-3.046,2.926-5.409.448-2.361.199-4.378-.75-6.049-.948-1.671-2.481-2.708-4.599-3.11-2.037-.387-3.823.02-5.358,1.219-1.537,1.199-2.528,2.981-2.976,5.342h.001Z" fill="#703e97"/>
  <path d="M432.951,73.107c2.45.429,4.724,1.018,6.823,1.766,2.098.75,4.044,1.777,5.836,3.081,1.792,1.306,3.399,2.94,4.823,4.906,1.422,1.965,2.607,4.328,3.557,7.086.972,2.612,1.961,5.854,2.967,9.729,1.003,3.876,1.859,8.124,2.564,12.747.706,4.624,1.128,9.426,1.265,14.407.139,4.983-.213,9.878-1.056,14.687-.467,2.664-1.182,5.056-2.141,7.176-.96,2.119-2.235,3.861-3.818,5.223-1.586,1.363-3.517,2.301-5.796,2.818-2.279.516-5.009.495-8.195-.062-3.021-.53-5.43-1.429-7.228-2.696-1.798-1.268-3.173-2.786-4.125-4.555-.954-1.768-1.521-3.698-1.701-5.789-.183-2.091-.119-4.253.19-6.488l-10.044-1.759c-.471,2.206-1.147,4.261-2.028,6.166s-2.069,3.527-3.566,4.867c-1.497,1.339-3.327,2.297-5.489,2.871-2.164.574-4.756.597-7.776.068-3.104-.543-5.66-1.449-7.667-2.715-2.008-1.267-3.528-2.81-4.554-4.63-1.028-1.819-1.634-3.89-1.816-6.21-.184-2.32-.041-4.812.425-7.476.842-4.809,2.174-9.533,3.996-14.172,1.822-4.638,3.85-9.01,6.084-13.12,2.234-4.108,4.502-7.81,6.805-11.106,2.301-3.295,4.313-6.013,6.035-8.153,3.738-4.531,7.72-7.323,11.944-8.376,4.224-1.052,8.785-1.15,13.685-.292h0ZM431.078,116.251l.04-.222c.376-2.145.65-4.194.823-6.148.172-1.952.182-3.686.027-5.201-.158-1.515-.508-2.757-1.051-3.731-.546-.971-1.39-1.559-2.532-1.759-1.145-.2-2.157.062-3.041.783-.884.723-1.656,1.769-2.317,3.14-.663,1.371-1.242,3.005-1.741,4.9-.502,1.897-.94,3.916-1.314,6.062l-.04.222,11.146,1.951v.003Z" fill="#703e97"/>
  <path d="M524.768,122.477c7.523,2.511,11.1,8.006,10.729,16.486-.355,8.106-3.891,13.986-10.605,17.639-6.716,3.654-15.995,5.222-27.837,4.703-5.798-.254-10.568-.764-14.309-1.528-3.744-.765-6.723-1.874-8.941-3.324-2.219-1.451-3.82-3.269-4.802-5.455-.984-2.186-1.657-4.791-2.023-7.815-.42-3.702-.664-7.587-.735-11.65-.071-4.064-.017-8.14.162-12.231.179-4.09.482-8.156.908-12.198.425-4.042,1.008-7.889,1.75-11.541.628-2.979,1.526-5.497,2.696-7.552,1.167-2.053,2.919-3.707,5.258-4.958,2.336-1.251,5.444-2.092,9.321-2.525,3.877-.431,8.798-.517,14.761-.256,11.594.508,20.555,2.874,26.885,7.098,6.329,4.225,9.319,10.316,8.971,18.27-.204,4.655-1.34,8.327-3.407,11.018-2.069,2.692-4.979,4.257-8.731,4.694l-.049,1.126h-.002ZM498.798,144.238c2.485.109,4.382-.578,5.691-2.063,1.31-1.484,2.022-3.539,2.137-6.167.115-2.626-.415-4.736-1.59-6.33-1.175-1.592-3.005-2.444-5.489-2.552-2.236-.098-3.529,1.012-3.879,3.327-.116.747-.214,1.552-.292,2.412-.08.862-.139,1.742-.178,2.643s-.059,1.802-.056,2.705c.002.902.029,1.693.083,2.372.109,1.285.442,2.201.999,2.751.556.552,1.414.852,2.575.902h-.001ZM500.902,96.167c-2.236-.098-3.531,1.049-3.885,3.439-.113.672-.209,1.457-.29,2.356-.082.899-.141,1.799-.18,2.699-.04.901-.059,1.784-.054,2.648.003.865.03,1.676.08,2.429.147,2.338,1.338,3.555,3.574,3.653,2.485.109,4.382-.578,5.692-2.063,1.309-1.483,2.022-3.539,2.137-6.167.115-2.626-.414-4.755-1.587-6.386-1.174-1.631-3.002-2.5-5.487-2.609h0Z" fill="#703e97"/>
  <path d="M578.657,80.033c6.459-.303,12.342.379,17.649,2.047,5.306,1.668,9.906,4.179,13.798,7.53,3.893,3.353,6.949,7.477,9.171,12.373,2.222,4.898,3.478,10.423,3.767,16.575.29,6.154-.442,11.773-2.195,16.856-1.753,5.085-4.409,9.477-7.97,13.179-3.561,3.703-7.905,6.633-13.032,8.791-5.126,2.159-10.92,3.39-17.378,3.694-6.459.304-12.363-.377-17.71-2.043-5.35-1.667-9.969-4.175-13.861-7.528-3.892-3.35-6.949-7.475-9.171-12.372-2.222-4.896-3.478-10.422-3.767-16.575-.289-6.152.443-11.771,2.195-16.856,1.754-5.083,4.41-9.475,7.97-13.179,3.561-3.701,7.924-6.634,13.094-8.794,5.168-2.161,10.982-3.393,17.44-3.697h0ZM571.489,115.567c.18,3.827,1.133,6.885,2.859,9.172,1.726,2.288,3.913,3.37,6.564,3.245,2.649-.125,4.705-1.406,6.168-3.844,1.461-2.438,2.103-5.57,1.923-9.397-.176-3.751-1.107-6.754-2.789-9.006-1.683-2.251-3.849-3.316-6.498-3.192-2.651.125-4.727,1.389-6.233,3.79-1.505,2.403-2.169,5.48-1.993,9.231h-.001Z" fill="#703e97"/>
  <path d="M663.87,72.541c6.415-.817,12.333-.605,17.756.636,5.422,1.24,10.207,3.377,14.354,6.408,4.147,3.033,7.522,6.9,10.127,11.603,2.605,4.706,4.296,10.113,5.074,16.223.778,6.111.496,11.77-.847,16.977-1.343,5.208-3.641,9.798-6.896,13.772-3.254,3.975-7.351,7.241-12.29,9.8-4.938,2.56-10.615,4.249-17.029,5.065-6.414.817-12.354.608-17.817-.628-5.465-1.235-10.269-3.368-14.416-6.4-4.146-3.03-7.522-6.898-10.127-11.603-2.604-4.704-4.296-10.112-5.074-16.223-.777-6.11-.495-11.769.847-16.977,1.343-5.207,3.641-9.796,6.896-13.771,3.254-3.973,7.37-7.243,12.352-9.809,4.979-2.565,10.677-4.256,17.091-5.073h0ZM659.553,108.532c.484,3.801,1.677,6.773,3.58,8.916s4.168,3.047,6.801,2.712c2.631-.335,4.579-1.775,5.843-4.322,1.262-2.546,1.653-5.72,1.169-9.52-.474-3.725-1.641-6.644-3.496-8.756-1.857-2.11-4.101-2.999-6.732-2.664-2.633.335-4.602,1.761-5.911,4.274-1.309,2.515-1.727,5.635-1.253,9.361h-.001Z" fill="#703e97"/>
</svg>